<svg aria-hidden="true" style="width:0;height:0;position:absolute;overflow:hidden" xmlns="http://www.w3.org/2000/svg"><defs><symbol id="close" viewBox="0 0 32 32"><path d="m17.254 16 7.369-7.369a.886.886 0 0 0-.047-1.207.893.893 0 0 0-1.207-.047L16 14.746 8.631 7.368A.892.892 0 0 0 7.369 8.63l7.378 7.369-7.378 7.369a.891.891 0 0 0-.249.999.881.881 0 0 0 .503.503.897.897 0 0 0 .712-.027.891.891 0 0 0 .288-.222l7.378-7.369 7.369 7.369a.886.886 0 0 0 1.207-.047.888.888 0 0 0 .047-1.207l-7.369-7.369z"/></symbol><symbol id="arrow" viewBox="0 0 32 32"><path d="m17.751 16.667-6.788-6.741L12.902 8l8.728 8.667-8.727 8.667-1.939-1.926 6.788-6.741z"/></symbol><symbol id="accent-heart" viewBox="0 0 35 32"><path fill="#fd5103" style="fill:var(--color1,#fd5103)" d="m17.684 32-2.564-2.302C6.013 21.554 0 16.183 0 9.591 0 4.22 4.28 0 9.726 0c3.077 0 6.03 1.413 7.958 3.645C19.612 1.413 22.565 0 25.642 0c5.447 0 9.726 4.22 9.726 9.591 0 6.592-6.013 11.963-15.12 20.124l-2.564 2.284z"/></symbol><symbol id="heart" viewBox="0 0 34 32"><path fill="#fd5103" style="fill:var(--color1,#fd5103)" d="M24.806 2.933h.008c1.835 0 3.493.753 4.685 1.966l.001.001c1.216 1.234 1.967 2.929 1.967 4.8s-.751 3.566-1.968 4.801l.001-.001-12.433 12.589L4.634 14.502c-1.216-1.234-1.967-2.929-1.967-4.8s.751-3.566 1.968-4.801l-.001.001c1.194-1.215 2.855-1.968 4.692-1.968s3.498.753 4.691 1.967l.001.001 3.049 3.119 3.036-3.095a6.513 6.513 0 0 1 4.695-1.993h.009zm0-2.4h-.008a8.938 8.938 0 0 0-6.399 2.687l-.001.001-1.331 1.344-1.333-1.344C14.103 1.563 11.834.536 9.327.536S4.551 1.563 2.921 3.22l-.001.001C1.279 4.891.265 7.184.265 9.713s1.013 4.821 2.656 6.493l-.001-.001 14.148 14.327 14.146-14.327c1.641-1.671 2.655-3.963 2.655-6.492s-1.013-4.821-2.656-6.493l.001.001A8.959 8.959 0 0 0 24.808.533z"/></symbol><symbol id="burger-menu" viewBox="0 0 32 32"><path d="M3.429 8c0-.631.512-1.143 1.143-1.143h22.857a1.143 1.143 0 0 1 0 2.286H4.572A1.143 1.143 0 0 1 3.429 8zm0 8c0-.631.512-1.143 1.143-1.143h22.857a1.143 1.143 0 0 1 0 2.286H4.572A1.143 1.143 0 0 1 3.429 16zm1.142 6.857a1.143 1.143 0 0 0 0 2.286h22.857a1.143 1.143 0 0 0 0-2.286H4.571z"/></symbol></defs></svg>